<svg xmlns="http://www.w3.org/2000/svg" viewBox="0 0 47.06 28.15"><defs><style>.cls-1{fill:#fff;}</style></defs><title>Asset 1</title><g id="Layer_2" data-name="Layer 2"><g id="Layer_1-2" data-name="Layer 1"><path class="cls-1" d="M4.09,4.13A13.7,13.7,0,0,1,14.22,0a13.57,13.57,0,0,1,10.1,4.13,13.46,13.46,0,0,1,4.13,10,13.59,13.59,0,0,1-4.09,10,13.93,13.93,0,0,1-10.17,4,13.78,13.78,0,0,1-10.14-4,13.54,13.54,0,0,1-4-10A13.62,13.62,0,0,1,4.09,4.13ZM19.86,19.86a7.74,7.74,0,0,0,2.25-5.75,8.07,8.07,0,0,0-2.32-5.78A7.5,7.5,0,0,0,14.22,6a7.52,7.52,0,0,0-5.6,2.32,7.94,7.94,0,0,0-2.28,5.78,7.92,7.92,0,0,0,2.28,5.75,7.65,7.65,0,0,0,5.6,2.29A7.68,7.68,0,0,0,19.86,19.86Z"/><path class="cls-1" d="M40,27.71,34.64,18.2h-3v9.51H25.58V.48H36.41c3.13,0,5.49.85,7.15,2.54A8.5,8.5,0,0,1,46,9.29a8.37,8.37,0,0,1-5.27,8.07l6.3,10.35ZM31.66,6.08v6.74H36c2.54,0,3.8-1.51,3.8-3.42a3.16,3.16,0,0,0-3.39-3.32Z"/></g></g></svg>